<svg id="icon_wallet" xmlns="http://www.w3.org/2000/svg" width="50" height="50" viewBox="0 0 50 50">
  <defs>
    <style>
      .cls-1, .cls-4 {
        fill: none;
      }

      .cls-1 {
        stroke: #fff;
        stroke-miterlimit: 10;
        stroke-width: 0.1px;
        opacity: 0.01;
      }

      .cls-2 {
        fill: #3e3e3e;
      }

      .cls-3 {
        stroke: none;
      }
    </style>
  </defs>
  <g id="Rectangle_26" data-name="Rectangle 26" class="cls-1">
    <rect class="cls-3" width="50" height="50"/>
    <rect class="cls-4" x="0.05" y="0.05" width="49.9" height="49.9"/>
  </g>
  <g id="icon_wallet-2" data-name="icon_wallet" transform="translate(-104.596 68.688)">
    <path id="路径_20" data-name="路径 20" class="cls-2" d="M120.853-28.689a5.285,5.285,0,0,1-5.257-5.26V-53.428a5.285,5.285,0,0,1,5.258-5.26l17.481,0a5.285,5.285,0,0,1,5.26,5.266v19.472a5.286,5.286,0,0,1-5.258,5.26Zm0-27.82a3.1,3.1,0,0,0-3.085,3.087v19.476a3.1,3.1,0,0,0,3.085,3.088l17.485,0a3.1,3.1,0,0,0,3.088-3.086v-3.09h-7.261a6.68,6.68,0,0,1-6.648-6.653,6.679,6.679,0,0,1,6.648-6.65l7.262,0V-53.42a3.1,3.1,0,0,0-3.086-3.088Zm13.311,8.341a4.5,4.5,0,0,0-4.477,4.48,4.5,4.5,0,0,0,4.477,4.483h7.262v-8.963Z"/>
    <path id="路径_21" data-name="路径 21" class="cls-2" d="M128.116-46.814a2.049,2.049,0,0,1-2.041-2.052,2.052,2.052,0,0,1,2.044-2.052,2.051,2.051,0,0,1,2.043,2.053,2.05,2.05,0,0,1-2.041,2.05Z" transform="translate(5.862 5.229)"/>
  </g>
</svg>
