<svg id="icon_record" xmlns="http://www.w3.org/2000/svg" width="50" height="50" viewBox="0 0 50 50">
  <defs>
    <style>
      .cls-1, .cls-4 {
        fill: none;
      }

      .cls-1 {
        stroke: #fff;
        stroke-miterlimit: 10;
        stroke-width: 0.1px;
        opacity: 0.01;
      }

      .cls-2 {
        fill: #3e3e3e;
      }

      .cls-3 {
        stroke: none;
      }
    </style>
  </defs>
  <g id="矩形" class="cls-1">
    <rect class="cls-3" width="50" height="50"/>
    <rect class="cls-4" x="0.05" y="0.05" width="49.9" height="49.9"/>
  </g>
  <g id="组_74" data-name="组 74" transform="translate(11 10)">
    <g id="组_69" data-name="组 69">
      <path id="路径_246" data-name="路径 246" class="cls-2" d="M22.738,30H5.262A5.325,5.325,0,0,1,0,24.682V5.318A5.325,5.325,0,0,1,5.262,0H22.738A5.325,5.325,0,0,1,28,5.318V24.682A5.261,5.261,0,0,1,22.738,30ZM5.262,2.308a2.941,2.941,0,0,0-2.979,3.01V24.682a2.941,2.941,0,0,0,2.979,3.01H22.738a2.941,2.941,0,0,0,2.979-3.01V5.318a2.941,2.941,0,0,0-2.979-3.01H5.262Z"/>
    </g>
    <g id="组_73" data-name="组 73" transform="translate(4.9 6.95)">
      <g id="组_70" data-name="组 70">
        <path id="路径_247" data-name="路径 247" class="cls-2" d="M14.1,9.2H6.2A1.135,1.135,0,0,1,5,8.1,1.216,1.216,0,0,1,6.2,6.9h7.9a1.216,1.216,0,0,1,1.2,1.2A1.131,1.131,0,0,1,14.1,9.2Z" transform="translate(-5 -6.9)"/>
      </g>
      <g id="组_71" data-name="组 71" transform="translate(0 6.9)">
        <path id="路径_248" data-name="路径 248" class="cls-2" d="M22,16.1H6.2A1.135,1.135,0,0,1,5,15a1.216,1.216,0,0,1,1.2-1.2H22A1.216,1.216,0,0,1,23.2,15,1.131,1.131,0,0,1,22,16.1Z" transform="translate(-5 -13.8)"/>
      </g>
      <g id="组_72" data-name="组 72" transform="translate(0 13.8)">
        <path id="路径_249" data-name="路径 249" class="cls-2" d="M17,23H6.2A1.135,1.135,0,0,1,5,21.9a1.216,1.216,0,0,1,1.2-1.2H17a1.216,1.216,0,0,1,1.2,1.2A1.131,1.131,0,0,1,17,23Z" transform="translate(-5 -20.7)"/>
      </g>
    </g>
  </g>
</svg>
