<svg xmlns="http://www.w3.org/2000/svg" xmlns:xlink="http://www.w3.org/1999/xlink" width="64" height="64" viewBox="0 0 64 64">
  <defs>
    <style>
      .cls-1 {
        fill: url(#linear-gradient);
      }

      .cls-2 {
        fill: #fff;
        stroke: rgba(0,0,0,0);
        stroke-miterlimit: 10;
      }
    </style>
    <linearGradient id="linear-gradient" x1="0.5" x2="0.5" y2="1" gradientUnits="objectBoundingBox">
      <stop offset="0" stop-color="#52525c"/>
      <stop offset="1" stop-color="#25252f"/>
    </linearGradient>
  </defs>
  <g id="_icon_iost" data-name=" icon_iost" transform="translate(-50 -607)">
    <circle id="椭圆_4" data-name="椭圆 4" class="cls-1" cx="32" cy="32" r="32" transform="translate(50 607)"/>
    <path id="路径_156" data-name="路径 156" class="cls-2" d="M800.9,631.942l-3.945-2.368-2.024,1.171-4.263-2.465,2-1.17-3.81-2.207-2.015,1.167-4.357-2.519,8.843-5.07,12.569,7.242,3.65-2.115-16.228-9.491L774.857,623.7l8.051,4.649-2.075,1.2,3.888,2.2,2.029-1.185L791,633.024l-2.059,1.192,4.059,2.33,2.04-1.188,3.749,2.165-7.433,4.3-16.5-9.555v4.557l16.478,9.487,15.284-8.813-7.66-4.429Z" transform="translate(-708.857 8.783)"/>
  </g>
</svg>
