<svg xmlns="http://www.w3.org/2000/svg" width="42" height="42" viewBox="0 0 42 42">
  <defs>
    <style>
      .cls-1 {
        fill: url(#linear-gradient);
      }
    </style>
    <linearGradient id="linear-gradient" x1="0.5" x2="0.5" y2="1" gradientUnits="objectBoundingBox">
      <stop offset="0" stop-color="#fed000"/>
      <stop offset="1" stop-color="#ffaf00"/>
    </linearGradient>
  </defs>
  <g id="icon_gift" transform="translate(0 0.1)">
    <path id="路径_236" data-name="路径 236" class="cls-1" d="M36.645,8.279H33.81a5.917,5.917,0,0,0,.315-1.885,6.763,6.763,0,0,0-1.89-4.608,6.6,6.6,0,0,0-9.24,0L21,3.88,19,1.89A6.349,6.349,0,0,0,14.385,0,6.8,6.8,0,0,0,9.765,1.89,6.733,6.733,0,0,0,7.875,6.6a10.3,10.3,0,0,0,.21,1.781H5.355A5.24,5.24,0,0,0,0,13.725v7.332a1.434,1.434,0,0,0,1.47,1.466H4.41V36.558A5.371,5.371,0,0,0,9.765,41.9h22.47a5.371,5.371,0,0,0,5.355-5.342V22.523h2.94A1.434,1.434,0,0,0,42,21.057V13.725A5.394,5.394,0,0,0,36.645,8.279ZM24.99,3.985A3.57,3.57,0,0,1,31.08,6.5a4.26,4.26,0,0,1-.525,1.885H25.3L22.89,6.08Zm-13.125.1a3.671,3.671,0,0,1,2.52-1.047A3.261,3.261,0,0,1,16.9,4.09l2,1.885,1.05,1.047L21,8.07l.315.314H11.34A3.436,3.436,0,0,1,10.92,6.6,2.849,2.849,0,0,1,11.865,4.09ZM7.35,36.558V22.523h27.3V36.558a2.373,2.373,0,0,1-2.415,2.409H22.47V28.389a1.47,1.47,0,0,0-2.94,0V39.072H9.765A2.531,2.531,0,0,1,7.35,36.558ZM39.06,19.591H2.94V13.725a2.373,2.373,0,0,1,2.415-2.409h31.29a2.373,2.373,0,0,1,2.415,2.409v5.865Z"/>
  </g>
</svg>
