<svg xmlns="http://www.w3.org/2000/svg" xmlns:xlink="http://www.w3.org/1999/xlink" width="42" height="40" viewBox="0 0 42 40">
  <defs>
    <style>
      .cls-1 {
        fill: #666;
      }
    </style>
  </defs>
  <path id="icon_shop" class="cls-1" d="M42,14.842a.634.634,0,0,0-.1-.421L37.9,1.053A1.45,1.45,0,0,0,36.54,0H5.46A1.36,1.36,0,0,0,4.095,1.053L.1,14.421a.634.634,0,0,0-.1.421,7.878,7.878,0,0,0,3.675,6.632V34.632A5.384,5.384,0,0,0,9.03,40H32.97a5.384,5.384,0,0,0,5.355-5.368V21.474A7.742,7.742,0,0,0,42,14.842ZM18.06,37.053V32.526a2.94,2.94,0,1,1,5.88,0v4.526Zm17.43-2.421a2.379,2.379,0,0,1-2.415,2.421h-6.09V32.526a5.88,5.88,0,1,0-11.76,0v4.526H9.03a2.379,2.379,0,0,1-2.415-2.421V22.737a6.441,6.441,0,0,0,1.47.105,8.042,8.042,0,0,0,6.51-3.368,7.975,7.975,0,0,0,13.02,0,8.042,8.042,0,0,0,6.51,3.368,6.915,6.915,0,0,0,1.47-.105V34.632ZM34.02,19.895a5.047,5.047,0,0,1-5.04-5.053,1.47,1.47,0,1,0-2.94,0A5.117,5.117,0,0,1,21,19.895a4.982,4.982,0,0,1-5.04-5.053,1.47,1.47,0,1,0-2.94,0,5.117,5.117,0,0,1-5.04,5.053,5,5,0,0,1-5.04-4.842L6.51,2.947H35.385L39.06,15.053A5,5,0,0,1,34.02,19.895Z"/>
</svg>
