<svg xmlns="http://www.w3.org/2000/svg" width="40" height="40" viewBox="0 0 40 40">
  <defs>
    <style>
      .cls-1 {
        fill: #666;
      }
    </style>
  </defs>
  <g id="icon_personal" transform="translate(-0.029)">
    <g id="椭圆_8_1_" transform="translate(0.029)">
      <path id="路径_243" data-name="路径 243" class="cls-1" d="M39.857,33.5a20.048,20.048,0,0,0-9.714-12.6,13.085,13.085,0,0,0,2.8-7.9A12.919,12.919,0,1,0,7.11,12.9a12.083,12.083,0,0,0,2.8,7.9A20.508,20.508,0,0,0,.2,33.5,5.157,5.157,0,0,0,5.207,40H34.85a5.157,5.157,0,0,0,5.007-6.5ZM20.029,2.9a10.037,10.037,0,0,1,10.014,10,10.63,10.63,0,0,1-2.5,6.7,9.59,9.59,0,0,1-2.5,2,10.293,10.293,0,0,1-10.014,0,9.59,9.59,0,0,1-2.5-2,9.9,9.9,0,0,1-2.5-6.7A10.037,10.037,0,0,1,20.029,2.9ZM36.853,36.3a2.581,2.581,0,0,1-1.9,1H5.207a2.339,2.339,0,0,1-2-1,2.286,2.286,0,0,1-.4-2.1,18.024,18.024,0,0,1,9.013-11.3,13.076,13.076,0,0,0,16.423,0,17.711,17.711,0,0,1,9.013,11.3A2.616,2.616,0,0,1,36.853,36.3Z" transform="translate(-0.029)"/>
    </g>
    <g id="组_62" data-name="组 62" transform="translate(15.382 17.253)">
      <path id="路径_244" data-name="路径 244" class="cls-1" d="M20,20.8a7.294,7.294,0,0,1-4.2-1.4,1.21,1.21,0,0,1,1.5-1.9,4.5,4.5,0,0,0,5.4,0,1.21,1.21,0,0,1,1.5,1.9A6.643,6.643,0,0,1,20,20.8Z" transform="translate(-15.353 -17.253)"/>
    </g>
  </g>
</svg>
